<svg width="384" height="384" viewBox="0 0 384 384" fill="none" xmlns="http://www.w3.org/2000/svg">
<g clip-path="url(#clip0_4061_2)">
<g filter="url(#filter0_dd_4061_2)">
<path d="M93.6905 29.7231C95.1196 27.2479 97.7606 25.7231 100.619 25.7231L283.381 25.7232C286.239 25.7232 288.88 27.2479 290.309 29.7232L381.691 188C383.12 190.475 383.12 193.525 381.691 196L290.309 354.277C288.88 356.752 286.239 358.277 283.381 358.277H100.619C97.7606 358.277 95.1196 356.752 93.6905 354.277L2.30935 196C0.880283 193.525 0.880283 190.475 2.30935 188L93.6905 29.7231Z" fill="#3EB489"/>
</g>
<path d="M89.1484 251.38L191.999 310.761L274.85 262.927L278.85 269.856L194 318.845L193.765 318.971C192.652 319.518 191.348 319.518 190.235 318.971L190 318.845L83.1484 257.155C81.9882 256.485 81.2454 255.282 81.1572 253.956L81.1484 253.691V155.711H89.1484V251.38ZM190 65.1545C191.237 64.4401 192.762 64.4402 194 65.1545L300.851 126.845C302.088 127.559 302.85 128.88 302.851 130.309V228.285H294.851V132.617L191.999 73.2366L109.149 121.069L105.15 114.142L190 65.1545Z" fill="white"/>
<circle cx="276.7" cy="266.78" r="4" fill="white"/>
<circle cx="298.7" cy="228.67" r="4" fill="white"/>
<circle cx="85" cy="156.1" r="4" fill="white"/>
<circle cx="107" cy="118" r="4" fill="white"/>
<path d="M191 160.577C191.619 160.22 192.381 160.22 193 160.577L218.713 175.423C219.332 175.78 219.713 176.44 219.713 177.155V206.845C219.713 207.56 219.332 208.22 218.713 208.577L193 223.423C192.381 223.78 191.619 223.78 191 223.423L165.287 208.577C164.668 208.22 164.287 207.56 164.287 206.845V177.155C164.287 176.44 164.668 175.78 165.287 175.423L191 160.577Z" fill="white"/>
<path d="M192 288L108.862 240" stroke="white" stroke-width="8" stroke-linecap="round"/>
<path d="M192 96L275.138 144" stroke="white" stroke-width="8" stroke-linecap="round"/>
</g>
<defs>
<filter id="filter0_dd_4061_2" x="-1.76245" y="23.7231" width="387.525" height="338.554" filterUnits="userSpaceOnUse" color-interpolation-filters="sRGB">
<feFlood flood-opacity="0" result="BackgroundImageFix"/>
<feColorMatrix in="SourceAlpha" type="matrix" values="0 0 0 0 0 0 0 0 0 0 0 0 0 0 0 0 0 0 127 0" result="hardAlpha"/>
<feOffset dy="1"/>
<feGaussianBlur stdDeviation="1"/>
<feColorMatrix type="matrix" values="0 0 0 0 0 0 0 0 0 0 0 0 0 0 0 0 0 0 0.06 0"/>
<feBlend mode="normal" in2="BackgroundImageFix" result="effect1_dropShadow_4061_2"/>
<feColorMatrix in="SourceAlpha" type="matrix" values="0 0 0 0 0 0 0 0 0 0 0 0 0 0 0 0 0 0 127 0" result="hardAlpha"/>
<feOffset dy="1"/>
<feGaussianBlur stdDeviation="1.5"/>
<feColorMatrix type="matrix" values="0 0 0 0 0 0 0 0 0 0 0 0 0 0 0 0 0 0 0.1 0"/>
<feBlend mode="normal" in2="effect1_dropShadow_4061_2" result="effect2_dropShadow_4061_2"/>
<feBlend mode="normal" in="SourceGraphic" in2="effect2_dropShadow_4061_2" result="shape"/>
</filter>
<clipPath id="clip0_4061_2">
<rect width="384" height="384" fill="white"/>
</clipPath>
</defs>
</svg>
