<svg width="128" height="128" viewBox="0 0 384 384" fill="none" xmlns="http://www.w3.org/2000/svg">
<path d="M93.1112 30.7251C94.8976 27.6311 98.1988 25.7251 101.771 25.7251L282.224 25.7251C285.797 25.7251 289.098 27.6311 290.885 30.7251L381.111 187.002C382.898 190.096 382.898 193.908 381.111 197.002L290.885 353.279C289.098 356.373 285.797 358.279 282.224 358.279H101.771C98.1988 358.279 94.8976 356.373 93.1112 353.279L2.88475 197.002C1.09842 193.908 1.09842 190.096 2.88475 187.002L93.1112 30.7251Z" fill="url(#paint0_radial_4068_2)"/>
<path d="M104.529 237.502C105.91 235.111 108.968 234.292 111.359 235.672L194.498 283.672L194.718 283.806C196.938 285.243 197.666 288.186 196.328 290.502C194.991 292.819 192.078 293.66 189.724 292.455L189.498 292.332L106.359 244.332C103.968 242.952 103.149 239.894 104.529 237.502Z" fill="white"/>
<path d="M186.998 162.889C190.092 161.103 193.904 161.103 196.998 162.889L214.711 173.116C217.805 174.902 219.711 178.203 219.711 181.776V202.229C219.711 205.801 217.805 209.103 214.711 210.889L196.998 221.116C193.904 222.902 190.092 222.902 186.998 221.116L169.285 210.889C166.191 209.103 164.285 205.801 164.285 202.229V181.776C164.285 178.203 166.191 174.902 169.285 173.116L186.998 162.889Z" fill="white"/>
<path d="M187.668 93.5022C189.049 91.1109 192.107 90.2916 194.498 91.6721L277.637 139.672L277.856 139.806C280.077 141.243 280.804 144.186 279.467 146.502C278.129 148.819 275.217 149.66 272.862 148.455L272.637 148.332L189.498 100.332C187.107 98.9515 186.287 95.8936 187.668 93.5022Z" fill="white"/>
<path fill-rule="evenodd" clip-rule="evenodd" d="M184.498 62.5589C189.139 59.8795 194.857 59.8795 199.498 62.5589L300.349 120.785C304.99 123.465 307.849 128.417 307.849 133.776V250.229C307.848 255.588 304.99 260.54 300.349 263.219L199.498 321.446C194.857 324.125 189.139 324.125 184.498 321.446L83.6465 263.219C79.0056 260.54 76.1466 255.588 76.1465 250.229V133.776C76.1465 128.417 79.0057 123.465 83.6465 120.785L184.498 62.5589ZM194.498 71.219C192.951 70.3259 191.045 70.326 189.498 71.219L88.6465 129.446C87.0997 130.339 86.1465 131.989 86.1465 133.776V250.229C86.1466 252.015 87.0997 253.666 88.6465 254.559L189.498 312.785C191.045 313.678 192.951 313.678 194.498 312.785L295.349 254.559C296.896 253.666 297.848 252.015 297.849 250.229V133.776C297.849 131.989 296.896 130.339 295.349 129.446L194.498 71.219Z" fill="white"/>
<defs>
<radialGradient id="paint0_radial_4068_2" cx="0" cy="0" r="1" gradientUnits="userSpaceOnUse" gradientTransform="translate(191.998 192.002) rotate(90) scale(166.277 190.453)">
<stop offset="0.245192" stop-color="#3EB489"/>
<stop offset="1" stop-color="#429E9D"/>
</radialGradient>
</defs>
</svg>
